####
#
# OBJ File Generated by Meshlab
#
####
# Object marker.obj
#
# Vertices: 8
# Faces: 6
#
####
mtllib ./marker.obj.mtl

vn 2.000000 -1.999809 -0.999999
v 4.759998 -0.005000 -3.079998 0.752941 0.752941 0.752941
vn 1.000000 -1.000072 2.000000
v 4.759998 -0.005000 3.079998 0.752941 0.752941 0.752941
vn -2.000000 -2.000381 0.999999
v -4.759998 -0.005000 3.079998 0.752941 0.752941 0.752941
vn -1.000000 -0.999881 -2.000000
v -4.759996 -0.005000 -3.080000 0.752941 0.752941 0.752941
vn 1.000000 2.000310 -2.000000
v 4.760000 0.005000 -3.079997 0.752941 0.752941 0.752941
vn 2.000000 1.000000 1.000001
v 4.759995 0.005000 3.080000 0.752941 0.752941 0.752941
vn -1.000000 1.999738 2.000000
v -4.760000 0.005000 3.079997 0.752941 0.752941 0.752941
vn -2.000000 0.999809 -1.000001
v -4.759997 0.005000 -3.079998 0.752941 0.752941 0.752941
# 8 vertices, 0 vertices normals


usemtl material_0
vt 0.000000 0.000000
vt 0.000000 0.000000
f 2/1/2 3/1/3 4/1/4 1/2/1
f 8/1/8 7/1/7 6/1/6 5/2/5
f 5/1/5 6/1/6 2/1/2 1/2/1
f 6/1/6 7/1/7 3/1/3 2/2/2
f 7/1/7 8/1/8 4/1/4 3/2/3
f 1/1/1 4/1/4 8/1/8 5/1/5
# 6 faces, 2 coords texture

# End of File
